# xmcd
#
# Track frame offsets:
#	150
#	7922
#	16944
#	28304
#	39679
#	48546
#	59236
#	69636
#
# Disc length: 1084 seconds
#
# Revision: 1
# Processed by: cddbd v1.5.1PL2 Copyright (c) Steve Scherf et al.
# Submitted via: audiograbber 1.83.01
#
DISCID=6e043a08
DTITLE=Roger Miller - King Of The Road
DYEAR=2005
DGENRE=Country
TTITLE0=Dang Me
TTITLE1=Chug A Lug
TTITLE2=Husbands and Wives
TTITLE3=King Of The Road
TTITLE4=England Swings
TTITLE5=Kansas City Star
TTITLE6=Engine Engine Number Nine
TTITLE7=Walkin' In The Sun Shine
EXTD=
EXTT0=
EXTT1=
EXTT2=
EXTT3=
EXTT4=
EXTT5=
EXTT6=
EXTT7=
PLAYORDER=
